<?xml version="1.0" encoding="utf-8"?>
<!-- Generator: Adobe Illustrator 17.1.0, SVG Export Plug-In . SVG Version: 6.00 Build 0)  -->
<!DOCTYPE svg PUBLIC "-//W3C//DTD SVG 1.1//EN" "http://www.w3.org/Graphics/SVG/1.1/DTD/svg11.dtd">
<svg version="1.1" id="Layer_1" xmlns="http://www.w3.org/2000/svg" xmlns:xlink="http://www.w3.org/1999/xlink" x="0px" y="0px"
	 viewBox="0 0 432 271" enable-background="new 0 0 432 271" xml:space="preserve">
<g>
	<g>
		<path fill="#FFFFFF" d="M252.368,95.172l-31.707-19.405l-31.708,19.405l-13.454-8.234l-11.841,7.246
			c-1.409,0.863-3.25,0.419-4.111-0.99c-0.862-1.409-0.419-3.25,0.99-4.111l14.962-9.157l13.454,8.234l31.708-19.405l31.707,19.405
			l13.454-8.234l14.958,9.154c1.409,0.862,1.852,2.703,0.99,4.111c-0.862,1.409-2.704,1.851-4.112,0.99l-11.836-7.244
			L252.368,95.172z"/>
	</g>
	<g>
		<g>
			<path fill="#FFFFFF" d="M40.463,180.192c0,5.423-4.437,9.86-9.859,9.86H10.885c-5.423,0-9.859-4.437-9.859-9.86v-49.296
				c0-5.423,4.437-9.86,9.859-9.86h19.719c5.423,0,9.859,4.437,9.859,9.86v12.324H25.674v-7.395h-9.859v39.437h9.859v-7.395h14.789
				V180.192z"/>
		</g>
		<g>
			<path fill="#FFFFFF" d="M97.545,180.192c0,5.423-4.437,9.86-9.859,9.86H67.968c-5.423,0-9.859-4.437-9.859-9.86v-49.296
				c0-5.423,4.437-9.86,9.859-9.86h19.719c5.423,0,9.859,4.437,9.859,9.86V180.192z M82.757,175.263v-39.437h-9.859v39.437H82.757z"
				/>
		</g>
		<g>
			<path fill="#FFFFFF" d="M149.6,190.052h-34.507v-69.015h14.789v54.226H149.6V190.052z"/>
		</g>
		<g>
			<path fill="#FFFFFF" d="M204.022,180.192c0,5.423-4.437,9.86-9.859,9.86h-19.719c-5.423,0-9.859-4.437-9.859-9.86v-49.296
				c0-5.423,4.437-9.86,9.859-9.86h19.719c5.423,0,9.859,4.437,9.859,9.86V180.192z M189.233,175.263v-39.437h-9.859v39.437H189.233
				z"/>
		</g>
		<g>
			<path fill="#FFFFFF" d="M253.316,164.714l7.69,25.338h-15.38l-6.507-25.141h-2.761v25.141h-14.789v-69.015h29.578
				c5.423,0,9.859,4.437,9.859,9.86v24.155C261.007,159.784,257.654,163.727,253.316,164.714z M246.218,150.122v-14.296h-9.859
				v14.296H246.218z"/>
		</g>
		<g>
			<path fill="#FFFFFF" d="M319.668,190.052h-15.381l-1.38-7.395h-13.409l-1.38,7.395h-15.381l14.789-69.015h17.353L319.668,190.052
				z M300.245,169.347l-3.845-23.761l-4.338,23.761H300.245z"/>
		</g>
		<g>
			<path fill="#FFFFFF" d="M373.892,180.192c0,5.423-4.437,9.86-9.86,9.86h-29.578v-69.015h29.578c5.422,0,9.86,4.437,9.86,9.86
				V180.192z M359.103,175.263v-39.437h-9.859v39.437H359.103z"/>
		</g>
		<g>
			<path fill="#FFFFFF" d="M430.974,180.192c0,5.423-4.437,9.86-9.86,9.86h-19.718c-5.423,0-9.859-4.437-9.859-9.86v-49.296
				c0-5.423,4.437-9.86,9.859-9.86h19.718c5.422,0,9.86,4.437,9.86,9.86V180.192z M416.185,175.263v-39.437h-9.859v39.437H416.185z"
				/>
		</g>
		<g>
			<path fill="#FFFFFF" d="M172.528,238.668v-5.484h-9.243v6.162h-6.162v-6.162c0-3.389,2.773-6.162,6.162-6.162h9.243
				c3.389,0,6.162,2.773,6.162,6.162v5.484c0,1.294-0.37,2.65-1.048,3.513l-14.358,18.363v3.45h15.405v6.162h-21.568v-9.613
				c0-1.294,0.369-2.65,1.047-3.513L172.528,238.668z"/>
		</g>
		<g>
			<path fill="#FFFFFF" d="M212.581,263.994c0,3.39-2.773,6.162-6.162,6.162h-9.243c-3.389,0-6.162-2.773-6.162-6.162v-30.811
				c0-3.389,2.773-6.162,6.162-6.162h9.243c3.389,0,6.162,2.773,6.162,6.162V263.994z M206.419,263.994v-30.811h-9.243v30.811
				H206.419z"/>
		</g>
		<g>
			<path fill="#FFFFFF" d="M242.589,270.157h-18.487v-6.162h6.162v-30.811h-6.162v-6.162h12.324v36.973h6.162V270.157z"/>
		</g>
		<g>
			<path fill="#FFFFFF" d="M275.678,260.913h-3.081v9.243h-6.162v-9.243H252.57v-6.162l13.865-27.729h6.162v27.729h3.081V260.913z
				 M266.435,254.751v-16.083l-7.764,16.083H266.435z"/>
		</g>
	</g>
	<g>
		<g>
			<path fill="#FFFFFF" d="M93.003,69.68c1.799,2.872,0.92,6.694-1.952,8.493l-13.056,8.176L55.102,49.793l13.056-8.176
				c2.872-1.799,6.694-0.92,8.493,1.952L93.003,69.68z M87.78,72.95L71.428,46.839l-7.834,4.906l16.352,26.111L87.78,72.95z"/>
		</g>
		<g>
			<path fill="#FFFFFF" d="M125.59,61.126l-5.973,2.642l-10.698-14.133l-4.396,1.944l6.979,15.778l-5.635,2.492L88.42,30.403
				l14.088-6.231c3.099-1.371,6.757,0.043,8.127,3.143l5.484,12.397c1.346,3.043,0.679,5.494-2.084,7.323L125.59,61.126z
				 M110.484,42.205L105,29.807l-8.453,3.739l5.484,12.397L110.484,42.205z"/>
		</g>
		<g>
			<path fill="#FFFFFF" d="M154.884,45.432c0.949,3.254-0.937,6.692-4.191,7.64l-8.874,2.587c-3.254,0.948-6.692-0.937-7.64-4.191
				L123.83,15.974l5.916-1.725l10.349,35.495l8.874-2.587L138.62,11.662l5.916-1.725L154.884,45.432z"/>
		</g>
		<g>
			<path fill="#FFFFFF" d="M184.958,22.419c0.538,3.346-1.698,6.514-5.105,7.062l-9.125,1.468l2.74,17.034l-6.083,0.979
				l-6.851-42.584l15.209-2.447c3.346-0.538,6.524,1.759,7.062,5.105L184.958,22.419z M178.875,23.397l-2.153-13.384l-9.125,1.468
				l2.153,13.384L178.875,23.397z"/>
		</g>
		<g>
			<path fill="#FFFFFF" d="M221.026,43.565l-6.525,0.307l-1.521-6.097l-10.71,0.504l-0.941,6.213l-6.525,0.307l7.205-43.522
				l7.756-0.365L221.026,43.565z M211.46,31.677l-4.945-19.878l-3.303,20.267L211.46,31.677z"/>
		</g>
		<g>
			<path fill="#FFFFFF" d="M248.321,45.054l-18.449-1.164l2.714-43.047l6.15,0.388l-2.327,36.898l12.299,0.776L248.321,45.054z"/>
		</g>
		<g>
			<path fill="#FFFFFF" d="M280.192,43.859c-0.594,3.337-3.809,5.581-7.146,4.987l-9.1-1.619c-3.336-0.594-5.581-3.809-4.987-7.145
				l5.395-30.332c0.594-3.337,3.809-5.581,7.146-4.987l9.1,1.619c3.336,0.594,5.581,3.809,4.987,7.146l-1.079,6.066l-6.066-1.079
				l1.079-6.066l-9.099-1.619l-5.396,30.332l9.1,1.619l1.079-6.066l6.067,1.079L280.192,43.859z"/>
		</g>
		<g>
			<path fill="#FFFFFF" d="M312.657,59.642l-6.234-1.946l0.659-6.249l-10.234-3.194l-3.012,5.515l-6.234-1.946l21.67-38.418
				l7.41,2.312L312.657,59.642z M307.741,45.199l2.161-20.367L299.86,42.739L307.741,45.199z"/>
		</g>
		<g>
			<path fill="#FFFFFF" d="M346.528,75.22l-5.546-2.689l11.938-24.62L334.44,69.358l-1.775-0.86l5.395-27.793l-11.938,24.62
				l-5.545-2.688l18.82-38.816l6.987,3.388l-5.089,25.749l17.066-19.942l6.987,3.388L346.528,75.22z"/>
		</g>
		<g>
			<path fill="#FFFFFF" d="M386.696,74.107c-1.948,2.773-5.76,3.483-8.584,1.5l-7.563-5.313l-9.918,14.118l-5.042-3.542
				l24.794-35.294l12.605,8.855c2.773,1.948,3.448,5.811,1.5,8.584L386.696,74.107z M381.655,70.565l7.792-11.093l-7.563-5.313
				l-7.793,11.092L381.655,70.565z"/>
		</g>
	</g>
	<g>
		<g>
			<path fill="#FFFFFF" d="M119,234H63.541c-1.651,0-2.99-1.349-2.99-3s1.339-3,2.99-3H119V234z"/>
		</g>
	</g>
	<g>
		<g>
			<path fill="#FFFFFF" d="M119,248h-12.846c-1.651,0-2.99-1.349-2.99-3s1.339-3,2.99-3H119V248z"/>
		</g>
	</g>
	<g>
		<g>
			<path fill="#FFFFFF" d="M309,234h55.818c1.651,0,2.99-1.349,2.99-3s-1.339-3-2.99-3H309V234z"/>
		</g>
	</g>
	<g>
		<g>
			<path fill="#FFFFFF" d="M309,248h13.206c1.651,0,2.99-1.349,2.99-3s-1.339-3-2.99-3H309V248z"/>
		</g>
	</g>
	<g>
		<g>
			<path fill="#FFFFFF" d="M40.463,180.192c0,5.423-4.437,9.86-9.859,9.86H10.885c-5.423,0-9.859-4.437-9.859-9.86v-49.296
				c0-5.423,4.437-9.86,9.859-9.86h19.719c5.423,0,9.859,4.437,9.859,9.86v12.324H25.674v-7.395h-9.859v39.437h9.859v-7.395h14.789
				V180.192z"/>
		</g>
		<g>
			<path fill="#FFFFFF" d="M97.545,180.192c0,5.423-4.437,9.86-9.859,9.86H67.968c-5.423,0-9.859-4.437-9.859-9.86v-49.296
				c0-5.423,4.437-9.86,9.859-9.86h19.719c5.423,0,9.859,4.437,9.859,9.86V180.192z M82.757,175.263v-39.437h-9.859v39.437H82.757z"
				/>
		</g>
		<g>
			<path fill="#FFFFFF" d="M149.6,190.052h-34.507v-69.015h14.789v54.226H149.6V190.052z"/>
		</g>
		<g>
			<path fill="#FFFFFF" d="M204.022,180.192c0,5.423-4.437,9.86-9.859,9.86h-19.719c-5.423,0-9.859-4.437-9.859-9.86v-49.296
				c0-5.423,4.437-9.86,9.859-9.86h19.719c5.423,0,9.859,4.437,9.859,9.86V180.192z M189.233,175.263v-39.437h-9.859v39.437H189.233
				z"/>
		</g>
		<g>
			<path fill="#FFFFFF" d="M253.316,164.714l7.69,25.338h-15.38l-6.507-25.141h-2.761v25.141h-14.789v-69.015h29.578
				c5.423,0,9.859,4.437,9.859,9.86v24.155C261.007,159.784,257.654,163.727,253.316,164.714z M246.218,150.122v-14.296h-9.859
				v14.296H246.218z"/>
		</g>
		<g>
			<path fill="#FFFFFF" d="M319.668,190.052h-15.381l-1.38-7.395h-13.409l-1.38,7.395h-15.381l14.789-69.015h17.353L319.668,190.052
				z M300.245,169.347l-3.845-23.761l-4.338,23.761H300.245z"/>
		</g>
		<g>
			<path fill="#FFFFFF" d="M373.892,180.192c0,5.423-4.437,9.86-9.86,9.86h-29.578v-69.015h29.578c5.422,0,9.86,4.437,9.86,9.86
				V180.192z M359.103,175.263v-39.437h-9.859v39.437H359.103z"/>
		</g>
		<g>
			<path fill="#FFFFFF" d="M430.974,180.192c0,5.423-4.437,9.86-9.86,9.86h-19.718c-5.423,0-9.859-4.437-9.859-9.86v-49.296
				c0-5.423,4.437-9.86,9.859-9.86h19.718c5.422,0,9.86,4.437,9.86,9.86V180.192z M416.185,175.263v-39.437h-9.859v39.437H416.185z"
				/>
		</g>
		<g>
			<path fill="#FFFFFF" d="M172.528,238.668v-5.484h-9.243v6.162h-6.162v-6.162c0-3.389,2.773-6.162,6.162-6.162h9.243
				c3.389,0,6.162,2.773,6.162,6.162v5.484c0,1.294-0.37,2.65-1.048,3.513l-14.358,18.363v3.45h15.405v6.162h-21.568v-9.613
				c0-1.294,0.369-2.65,1.047-3.513L172.528,238.668z"/>
		</g>
		<g>
			<path fill="#FFFFFF" d="M212.581,263.994c0,3.39-2.773,6.162-6.162,6.162h-9.243c-3.389,0-6.162-2.773-6.162-6.162v-30.811
				c0-3.389,2.773-6.162,6.162-6.162h9.243c3.389,0,6.162,2.773,6.162,6.162V263.994z M206.419,263.994v-30.811h-9.243v30.811
				H206.419z"/>
		</g>
		<g>
			<path fill="#FFFFFF" d="M242.589,270.157h-18.487v-6.162h6.162v-30.811h-6.162v-6.162h12.324v36.973h6.162V270.157z"/>
		</g>
		<g>
			<path fill="#FFFFFF" d="M275.678,260.913h-3.081v9.243h-6.162v-9.243H252.57v-6.162l13.865-27.729h6.162v27.729h3.081V260.913z
				 M266.435,254.751v-16.083l-7.764,16.083H266.435z"/>
		</g>
	</g>
</g>
</svg>
